<mxfile host="app.diagrams.net" agent="Mozilla/5.0 (Macintosh; Intel Mac OS X 10_15_7) AppleWebKit/537.36 (KHTML, like Gecko) Chrome/136.0.0.0 Safari/537.36 Edg/136.0.0.0" version="26.2.15">
  <diagram name="第 1 页" id="o7NUDWq_PIkofpthWyrm">
    <mxGraphModel dx="1301" dy="916" grid="1" gridSize="10" guides="1" tooltips="1" connect="1" arrows="1" fold="1" page="1" pageScale="1" pageWidth="1169" pageHeight="827" math="0" shadow="0">
      <root>
        <mxCell id="0" />
        <mxCell id="1" parent="0" />
        <mxCell id="SSdJiVfDsQ5-98wGtHyl-13" value="" style="image;html=1;image=img/lib/clip_art/computers/Harddrive_128x128.png" vertex="1" parent="1">
          <mxGeometry x="160" y="280" width="80" height="80" as="geometry" />
        </mxCell>
        <mxCell id="SSdJiVfDsQ5-98wGtHyl-14" value="" style="image;html=1;image=img/lib/clip_art/computers/Laptop_128x128.png" vertex="1" parent="1">
          <mxGeometry x="420" y="200" width="80" height="80" as="geometry" />
        </mxCell>
        <mxCell id="SSdJiVfDsQ5-98wGtHyl-17" value="" style="image;html=1;image=img/lib/clip_art/telecommunication/iPhone_128x128.png" vertex="1" parent="1">
          <mxGeometry x="620" y="200" width="80" height="80" as="geometry" />
        </mxCell>
        <mxCell id="SSdJiVfDsQ5-98wGtHyl-18" value="" style="image;html=1;image=img/lib/clip_art/telecommunication/Signal_tower_off_128x128.png" vertex="1" parent="1">
          <mxGeometry x="520" y="360" width="80" height="80" as="geometry" />
        </mxCell>
        <mxCell id="SSdJiVfDsQ5-98wGtHyl-19" value="" style="image;html=1;image=img/lib/clip_art/telecommunication/Signal_tower_on_128x128.png" vertex="1" parent="1">
          <mxGeometry x="160" y="360" width="80" height="80" as="geometry" />
        </mxCell>
        <mxCell id="SSdJiVfDsQ5-98wGtHyl-29" value="" style="image;html=1;image=img/lib/clip_art/computers/Monitor_Tower_128x128.png" vertex="1" parent="1">
          <mxGeometry x="160" y="200" width="80" height="80" as="geometry" />
        </mxCell>
        <mxCell id="SSdJiVfDsQ5-98wGtHyl-30" value="" style="html=1;verticalLabelPosition=bottom;align=center;labelBackgroundColor=#ffffff;verticalAlign=top;strokeWidth=2;strokeColor=#0080F0;shadow=0;dashed=0;shape=mxgraph.ios7.icons.wifi;pointerEvents=1;rotation=90;" vertex="1" parent="1">
          <mxGeometry x="270" y="374" width="60" height="40" as="geometry" />
        </mxCell>
        <mxCell id="SSdJiVfDsQ5-98wGtHyl-33" value="" style="image;html=1;image=img/lib/clip_art/computers/Virtual_Application_128x128.png" vertex="1" parent="1">
          <mxGeometry x="420" y="120" width="80" height="80" as="geometry" />
        </mxCell>
        <mxCell id="SSdJiVfDsQ5-98wGtHyl-36" value="" style="html=1;verticalLabelPosition=bottom;align=center;labelBackgroundColor=#ffffff;verticalAlign=top;strokeWidth=2;strokeColor=#0080F0;shadow=0;dashed=0;shape=mxgraph.ios7.icons.wifi;pointerEvents=1;rotation=90;" vertex="1" parent="1">
          <mxGeometry x="350" y="374" width="60" height="40" as="geometry" />
        </mxCell>
        <mxCell id="SSdJiVfDsQ5-98wGtHyl-37" value="" style="html=1;verticalLabelPosition=bottom;align=center;labelBackgroundColor=#ffffff;verticalAlign=top;strokeWidth=2;strokeColor=#0080F0;shadow=0;dashed=0;shape=mxgraph.ios7.icons.wifi;pointerEvents=1;rotation=90;" vertex="1" parent="1">
          <mxGeometry x="430" y="374" width="60" height="40" as="geometry" />
        </mxCell>
        <mxCell id="SSdJiVfDsQ5-98wGtHyl-38" value="" style="image;aspect=fixed;html=1;points=[];align=center;fontSize=12;image=img/lib/azure2/general/Dev_Console.svg;" vertex="1" parent="1">
          <mxGeometry x="620" y="128" width="80" height="64" as="geometry" />
        </mxCell>
        <mxCell id="SSdJiVfDsQ5-98wGtHyl-39" value="" style="image;html=1;image=img/lib/clip_art/networking/Cloud_Computer_Private_128x128.png" vertex="1" parent="1">
          <mxGeometry x="160" y="120" width="80" height="80" as="geometry" />
        </mxCell>
        <mxCell id="SSdJiVfDsQ5-98wGtHyl-40" value="" style="image;html=1;image=img/lib/clip_art/networking/power_distribution_unit_128x128.png" vertex="1" parent="1">
          <mxGeometry x="520" y="280" width="80" height="80" as="geometry" />
        </mxCell>
        <mxCell id="SSdJiVfDsQ5-98wGtHyl-45" value="" style="edgeStyle=orthogonalEdgeStyle;rounded=0;orthogonalLoop=1;jettySize=auto;html=1;" edge="1" parent="1" source="SSdJiVfDsQ5-98wGtHyl-41" target="SSdJiVfDsQ5-98wGtHyl-42">
          <mxGeometry relative="1" as="geometry" />
        </mxCell>
        <mxCell id="SSdJiVfDsQ5-98wGtHyl-41" value="Device" style="text;html=1;align=center;verticalAlign=middle;resizable=0;points=[];autosize=1;strokeColor=none;fillColor=none;" vertex="1" parent="1">
          <mxGeometry x="49" y="225" width="60" height="30" as="geometry" />
        </mxCell>
        <mxCell id="SSdJiVfDsQ5-98wGtHyl-50" value="" style="edgeStyle=orthogonalEdgeStyle;rounded=0;orthogonalLoop=1;jettySize=auto;html=1;" edge="1" parent="1" source="SSdJiVfDsQ5-98wGtHyl-42" target="SSdJiVfDsQ5-98wGtHyl-41">
          <mxGeometry relative="1" as="geometry" />
        </mxCell>
        <mxCell id="SSdJiVfDsQ5-98wGtHyl-42" value="Hardware" style="text;html=1;align=center;verticalAlign=middle;resizable=0;points=[];autosize=1;strokeColor=none;fillColor=none;" vertex="1" parent="1">
          <mxGeometry x="40" y="308" width="80" height="30" as="geometry" />
        </mxCell>
        <mxCell id="SSdJiVfDsQ5-98wGtHyl-43" value="Software" style="text;html=1;align=center;verticalAlign=middle;resizable=0;points=[];autosize=1;strokeColor=none;fillColor=none;" vertex="1" parent="1">
          <mxGeometry x="45" y="145" width="70" height="30" as="geometry" />
        </mxCell>
        <mxCell id="SSdJiVfDsQ5-98wGtHyl-44" value="Data Acquisition" style="text;html=1;align=center;verticalAlign=middle;resizable=0;points=[];autosize=1;strokeColor=none;fillColor=none;" vertex="1" parent="1">
          <mxGeometry x="24" y="385" width="110" height="30" as="geometry" />
        </mxCell>
        <mxCell id="SSdJiVfDsQ5-98wGtHyl-48" style="edgeStyle=orthogonalEdgeStyle;rounded=0;orthogonalLoop=1;jettySize=auto;html=1;entryX=0.504;entryY=-0.014;entryDx=0;entryDy=0;entryPerimeter=0;" edge="1" parent="1" source="SSdJiVfDsQ5-98wGtHyl-42" target="SSdJiVfDsQ5-98wGtHyl-44">
          <mxGeometry relative="1" as="geometry" />
        </mxCell>
        <mxCell id="SSdJiVfDsQ5-98wGtHyl-49" style="edgeStyle=orthogonalEdgeStyle;rounded=0;orthogonalLoop=1;jettySize=auto;html=1;entryX=0.512;entryY=-0.014;entryDx=0;entryDy=0;entryPerimeter=0;" edge="1" parent="1" source="SSdJiVfDsQ5-98wGtHyl-43" target="SSdJiVfDsQ5-98wGtHyl-41">
          <mxGeometry relative="1" as="geometry" />
        </mxCell>
      </root>
    </mxGraphModel>
  </diagram>
</mxfile>
